<mxfile host="65bd71144e">
    <diagram id="qNVnoE215ap24oWNIVJe" name="第1頁">
        <mxGraphModel dx="641" dy="718" grid="1" gridSize="10" guides="1" tooltips="1" connect="1" arrows="1" fold="1" page="1" pageScale="1" pageWidth="827" pageHeight="1169" math="0" shadow="0">
            <root>
                <mxCell id="0"/>
                <mxCell id="1" parent="0"/>
                <mxCell id="2" value="社區" style="rounded=0;whiteSpace=wrap;html=1;" vertex="1" parent="1">
                    <mxGeometry x="70" y="40" width="170" height="30" as="geometry"/>
                </mxCell>
                <mxCell id="5" style="edgeStyle=none;html=1;entryX=0;entryY=0.5;entryDx=0;entryDy=0;" edge="1" parent="1" source="4" target="8">
                    <mxGeometry relative="1" as="geometry">
                        <mxPoint x="320" y="175" as="targetPoint"/>
                    </mxGeometry>
                </mxCell>
                <mxCell id="22" style="edgeStyle=none;html=1;entryX=0;entryY=0.5;entryDx=0;entryDy=0;" edge="1" parent="1" target="10">
                    <mxGeometry relative="1" as="geometry">
                        <mxPoint x="150" y="240" as="sourcePoint"/>
                        <Array as="points">
                            <mxPoint x="150" y="365"/>
                        </Array>
                    </mxGeometry>
                </mxCell>
                <mxCell id="23" style="edgeStyle=none;html=1;entryX=0;entryY=0.5;entryDx=0;entryDy=0;exitX=0;exitY=1;exitDx=0;exitDy=0;" edge="1" parent="1" source="4" target="14">
                    <mxGeometry relative="1" as="geometry">
                        <Array as="points">
                            <mxPoint x="70" y="570"/>
                        </Array>
                    </mxGeometry>
                </mxCell>
                <mxCell id="4" value="信件與包裹的收發任務&lt;br&gt;&lt;br&gt;社區發布公告&lt;br&gt;&lt;br&gt;包含住戶與委員&lt;br&gt;" style="whiteSpace=wrap;html=1;aspect=fixed;" vertex="1" parent="1">
                    <mxGeometry x="70" y="70" width="170" height="170" as="geometry"/>
                </mxCell>
                <mxCell id="6" value="APP" style="rounded=0;whiteSpace=wrap;html=1;" vertex="1" parent="1">
                    <mxGeometry x="320" y="40" width="200" height="30" as="geometry"/>
                </mxCell>
                <mxCell id="17" style="edgeStyle=none;html=1;entryX=0;entryY=0;entryDx=0;entryDy=0;exitX=0.7;exitY=0.994;exitDx=0;exitDy=0;exitPerimeter=0;" edge="1" parent="1" source="8" target="11">
                    <mxGeometry relative="1" as="geometry"/>
                </mxCell>
                <mxCell id="18" style="edgeStyle=none;html=1;entryX=1;entryY=0;entryDx=0;entryDy=0;" edge="1" parent="1" target="9">
                    <mxGeometry relative="1" as="geometry">
                        <mxPoint x="350" y="240" as="sourcePoint"/>
                    </mxGeometry>
                </mxCell>
                <mxCell id="8" value="認真簽收後，&lt;br&gt;傳送或推播簡訊給包裹所有人&lt;br&gt;&lt;br&gt;只有委員能編輯與刪除公告&lt;br&gt;&lt;br&gt;住戶最多可綁定2支手機APP" style="rounded=0;whiteSpace=wrap;html=1;" vertex="1" parent="1">
                    <mxGeometry x="320" y="70" width="200" height="170" as="geometry"/>
                </mxCell>
                <mxCell id="9" value="委員" style="rounded=0;whiteSpace=wrap;html=1;" vertex="1" parent="1">
                    <mxGeometry x="190" y="270" width="160" height="30" as="geometry"/>
                </mxCell>
                <mxCell id="20" style="edgeStyle=none;html=1;exitX=1.006;exitY=0.154;exitDx=0;exitDy=0;exitPerimeter=0;" edge="1" parent="1" source="10">
                    <mxGeometry relative="1" as="geometry">
                        <mxPoint x="410" y="320" as="targetPoint"/>
                    </mxGeometry>
                </mxCell>
                <mxCell id="10" value="只有委員能編輯與刪除公告&lt;br&gt;&lt;br&gt;擁有專屬的職位&lt;br&gt;&lt;br&gt;" style="rounded=0;whiteSpace=wrap;html=1;" vertex="1" parent="1">
                    <mxGeometry x="190" y="300" width="160" height="130" as="geometry"/>
                </mxCell>
                <mxCell id="11" value="發布公告" style="rounded=0;whiteSpace=wrap;html=1;" vertex="1" parent="1">
                    <mxGeometry x="460" y="270" width="200" height="30" as="geometry"/>
                </mxCell>
                <mxCell id="16" style="edgeStyle=none;html=1;entryX=1.005;entryY=0.463;entryDx=0;entryDy=0;entryPerimeter=0;" edge="1" parent="1" source="12" target="14">
                    <mxGeometry relative="1" as="geometry">
                        <Array as="points">
                            <mxPoint x="560" y="564"/>
                        </Array>
                    </mxGeometry>
                </mxCell>
                <mxCell id="12" value="委員隨時新增、修改與刪除&lt;br&gt;&lt;br&gt;讓住戶隨時查看包裏與信件是否簽收" style="rounded=0;whiteSpace=wrap;html=1;" vertex="1" parent="1">
                    <mxGeometry x="460" y="300" width="200" height="130" as="geometry"/>
                </mxCell>
                <mxCell id="19" style="edgeStyle=none;html=1;entryX=0.445;entryY=0.994;entryDx=0;entryDy=0;entryPerimeter=0;exitX=0.463;exitY=-0.1;exitDx=0;exitDy=0;exitPerimeter=0;" edge="1" parent="1" source="13" target="8">
                    <mxGeometry relative="1" as="geometry">
                        <mxPoint x="415" y="240" as="targetPoint"/>
                    </mxGeometry>
                </mxCell>
                <mxCell id="13" value="住戶" style="rounded=0;whiteSpace=wrap;html=1;" vertex="1" parent="1">
                    <mxGeometry x="320" y="460" width="190" height="30" as="geometry"/>
                </mxCell>
                <mxCell id="14" value="手機綁定APP&lt;br&gt;&lt;br&gt;針對公告進行交文章回應" style="rounded=0;whiteSpace=wrap;html=1;" vertex="1" parent="1">
                    <mxGeometry x="320" y="490" width="190" height="160" as="geometry"/>
                </mxCell>
            </root>
        </mxGraphModel>
    </diagram>
    <diagram id="Tqdu6IDZ-jsN64fo5xe6" name="第2頁">
        <mxGraphModel dx="641" dy="718" grid="1" gridSize="10" guides="1" tooltips="1" connect="1" arrows="1" fold="1" page="1" pageScale="1" pageWidth="827" pageHeight="1169" math="0" shadow="0">
            <root>
                <mxCell id="0"/>
                <mxCell id="1" parent="0"/>
                <mxCell id="M7cJaDudLQJauJ5C9HDS-12" style="edgeStyle=none;html=1;entryX=0;entryY=0.5;entryDx=0;entryDy=0;dashed=1;endArrow=none;endFill=0;" edge="1" parent="1" source="M7cJaDudLQJauJ5C9HDS-1" target="M7cJaDudLQJauJ5C9HDS-6">
                    <mxGeometry relative="1" as="geometry"/>
                </mxCell>
                <mxCell id="M7cJaDudLQJauJ5C9HDS-1" value="住戶綁定APP" style="rounded=0;whiteSpace=wrap;html=1;" vertex="1" parent="1">
                    <mxGeometry x="40" y="90" width="120" height="60" as="geometry"/>
                </mxCell>
                <mxCell id="M7cJaDudLQJauJ5C9HDS-2" value="收發信件/包裹&lt;span style=&quot;color: rgba(0, 0, 0, 0); font-family: monospace; font-size: 0px; text-align: start;&quot;&gt;%3CmxGraphModel%3E%3Croot%3E%3CmxCell%20id%3D%220%22%2F%3E%3CmxCell%20id%3D%221%22%20parent%3D%220%22%2F%3E%3CmxCell%20id%3D%222%22%20value%3D%22%22%20style%3D%22rounded%3D0%3BwhiteSpace%3Dwrap%3Bhtml%3D1%3B%22%20vertex%3D%221%22%20parent%3D%221%22%3E%3CmxGeometry%20x%3D%2240%22%20y%3D%2290%22%20width%3D%22120%22%20height%3D%2260%22%20as%3D%22geometry%22%2F%3E%3C%2FmxCell%3E%3C%2Froot%3E%3C%2FmxGraphModel%3E&lt;/span&gt;" style="rounded=0;whiteSpace=wrap;html=1;" vertex="1" parent="1">
                    <mxGeometry x="190" y="90" width="120" height="60" as="geometry"/>
                </mxCell>
                <mxCell id="M7cJaDudLQJauJ5C9HDS-3" value="委員發布公告" style="rounded=0;whiteSpace=wrap;html=1;" vertex="1" parent="1">
                    <mxGeometry x="340" y="90" width="120" height="60" as="geometry"/>
                </mxCell>
                <mxCell id="M7cJaDudLQJauJ5C9HDS-4" value="住戶對公告進行回應" style="rounded=0;whiteSpace=wrap;html=1;" vertex="1" parent="1">
                    <mxGeometry x="490" y="90" width="120" height="60" as="geometry"/>
                </mxCell>
                <mxCell id="M7cJaDudLQJauJ5C9HDS-5" value="委員對公告進行編輯或刪除" style="rounded=0;whiteSpace=wrap;html=1;" vertex="1" parent="1">
                    <mxGeometry x="640" y="90" width="120" height="60" as="geometry"/>
                </mxCell>
                <mxCell id="M7cJaDudLQJauJ5C9HDS-13" style="edgeStyle=none;html=1;entryX=0.75;entryY=0;entryDx=0;entryDy=0;exitX=0.25;exitY=0;exitDx=0;exitDy=0;" edge="1" parent="1" source="M7cJaDudLQJauJ5C9HDS-6" target="M7cJaDudLQJauJ5C9HDS-7">
                    <mxGeometry relative="1" as="geometry"/>
                </mxCell>
                <mxCell id="M7cJaDudLQJauJ5C9HDS-6" value="" style="rounded=0;whiteSpace=wrap;html=1;direction=south;" vertex="1" parent="1">
                    <mxGeometry x="85" y="240" width="30" height="250" as="geometry"/>
                </mxCell>
                <mxCell id="M7cJaDudLQJauJ5C9HDS-7" value="" style="rounded=0;whiteSpace=wrap;html=1;direction=north;" vertex="1" parent="1">
                    <mxGeometry x="235" y="240" width="30" height="250" as="geometry"/>
                </mxCell>
                <mxCell id="M7cJaDudLQJauJ5C9HDS-8" value="" style="rounded=0;whiteSpace=wrap;html=1;direction=south;" vertex="1" parent="1">
                    <mxGeometry x="385" y="240" width="30" height="250" as="geometry"/>
                </mxCell>
                <mxCell id="M7cJaDudLQJauJ5C9HDS-9" value="" style="rounded=0;whiteSpace=wrap;html=1;direction=south;" vertex="1" parent="1">
                    <mxGeometry x="535" y="240" width="30" height="250" as="geometry"/>
                </mxCell>
                <mxCell id="M7cJaDudLQJauJ5C9HDS-10" value="" style="rounded=0;whiteSpace=wrap;html=1;direction=south;" vertex="1" parent="1">
                    <mxGeometry x="685" y="240" width="30" height="250" as="geometry"/>
                </mxCell>
                <mxCell id="M7cJaDudLQJauJ5C9HDS-11" value="住戶手機綁定&lt;br&gt;APP，並輸入住戶&lt;br&gt;訊息" style="text;html=1;align=center;verticalAlign=middle;resizable=0;points=[];autosize=1;strokeColor=none;fillColor=none;" vertex="1" parent="1">
                    <mxGeometry x="115" y="210" width="120" height="60" as="geometry"/>
                </mxCell>
                <mxCell id="M7cJaDudLQJauJ5C9HDS-14" style="edgeStyle=none;html=1;dashed=1;endArrow=none;endFill=0;exitX=0.5;exitY=1;exitDx=0;exitDy=0;" edge="1" parent="1" source="M7cJaDudLQJauJ5C9HDS-2">
                    <mxGeometry relative="1" as="geometry">
                        <mxPoint x="249.5" y="160" as="sourcePoint"/>
                        <mxPoint x="250" y="240" as="targetPoint"/>
                    </mxGeometry>
                </mxCell>
                <mxCell id="M7cJaDudLQJauJ5C9HDS-15" style="edgeStyle=none;html=1;entryX=0;entryY=0.5;entryDx=0;entryDy=0;dashed=1;endArrow=none;endFill=0;" edge="1" parent="1">
                    <mxGeometry relative="1" as="geometry">
                        <mxPoint x="399.5" y="150" as="sourcePoint"/>
                        <mxPoint x="399.5" y="240" as="targetPoint"/>
                    </mxGeometry>
                </mxCell>
                <mxCell id="M7cJaDudLQJauJ5C9HDS-16" style="edgeStyle=none;html=1;entryX=0;entryY=0.5;entryDx=0;entryDy=0;dashed=1;endArrow=none;endFill=0;" edge="1" parent="1">
                    <mxGeometry relative="1" as="geometry">
                        <mxPoint x="549.5" y="150" as="sourcePoint"/>
                        <mxPoint x="549.5" y="240" as="targetPoint"/>
                    </mxGeometry>
                </mxCell>
                <mxCell id="M7cJaDudLQJauJ5C9HDS-17" style="edgeStyle=none;html=1;entryX=0;entryY=0.5;entryDx=0;entryDy=0;dashed=1;endArrow=none;endFill=0;" edge="1" parent="1">
                    <mxGeometry relative="1" as="geometry">
                        <mxPoint x="699.5" y="150" as="sourcePoint"/>
                        <mxPoint x="699.5" y="240" as="targetPoint"/>
                    </mxGeometry>
                </mxCell>
                <mxCell id="M7cJaDudLQJauJ5C9HDS-18" style="edgeStyle=none;html=1;entryX=0;entryY=0.5;entryDx=0;entryDy=0;dashed=1;endArrow=none;endFill=0;" edge="1" parent="1">
                    <mxGeometry relative="1" as="geometry">
                        <mxPoint x="99.5" y="490" as="sourcePoint"/>
                        <mxPoint x="99.5" y="580" as="targetPoint"/>
                    </mxGeometry>
                </mxCell>
                <mxCell id="M7cJaDudLQJauJ5C9HDS-19" style="edgeStyle=none;html=1;entryX=0;entryY=0.5;entryDx=0;entryDy=0;dashed=1;endArrow=none;endFill=0;" edge="1" parent="1">
                    <mxGeometry relative="1" as="geometry">
                        <mxPoint x="249.5" y="490" as="sourcePoint"/>
                        <mxPoint x="249.5" y="580" as="targetPoint"/>
                    </mxGeometry>
                </mxCell>
                <mxCell id="M7cJaDudLQJauJ5C9HDS-20" style="edgeStyle=none;html=1;entryX=0;entryY=0.5;entryDx=0;entryDy=0;dashed=1;endArrow=none;endFill=0;" edge="1" parent="1">
                    <mxGeometry relative="1" as="geometry">
                        <mxPoint x="399.5" y="490" as="sourcePoint"/>
                        <mxPoint x="399.5" y="580" as="targetPoint"/>
                    </mxGeometry>
                </mxCell>
                <mxCell id="M7cJaDudLQJauJ5C9HDS-21" style="edgeStyle=none;html=1;entryX=0;entryY=0.5;entryDx=0;entryDy=0;dashed=1;endArrow=none;endFill=0;" edge="1" parent="1">
                    <mxGeometry relative="1" as="geometry">
                        <mxPoint x="549.5" y="490" as="sourcePoint"/>
                        <mxPoint x="549.5" y="580" as="targetPoint"/>
                    </mxGeometry>
                </mxCell>
                <mxCell id="M7cJaDudLQJauJ5C9HDS-22" style="edgeStyle=none;html=1;entryX=0;entryY=0.5;entryDx=0;entryDy=0;dashed=1;endArrow=none;endFill=0;" edge="1" parent="1">
                    <mxGeometry relative="1" as="geometry">
                        <mxPoint x="699.5" y="490" as="sourcePoint"/>
                        <mxPoint x="699.5" y="580" as="targetPoint"/>
                    </mxGeometry>
                </mxCell>
                <mxCell id="M7cJaDudLQJauJ5C9HDS-23" style="edgeStyle=none;html=1;entryX=0.75;entryY=0;entryDx=0;entryDy=0;exitX=0.25;exitY=0;exitDx=0;exitDy=0;" edge="1" parent="1">
                    <mxGeometry relative="1" as="geometry">
                        <mxPoint x="265" y="300" as="sourcePoint"/>
                        <mxPoint x="385" y="300" as="targetPoint"/>
                    </mxGeometry>
                </mxCell>
                <mxCell id="M7cJaDudLQJauJ5C9HDS-24" style="edgeStyle=none;html=1;entryX=0.75;entryY=0;entryDx=0;entryDy=0;exitX=0.25;exitY=0;exitDx=0;exitDy=0;" edge="1" parent="1">
                    <mxGeometry relative="1" as="geometry">
                        <mxPoint x="415" y="300" as="sourcePoint"/>
                        <mxPoint x="535" y="300" as="targetPoint"/>
                    </mxGeometry>
                </mxCell>
                <mxCell id="M7cJaDudLQJauJ5C9HDS-25" style="edgeStyle=none;html=1;entryX=0.75;entryY=0;entryDx=0;entryDy=0;exitX=0.25;exitY=0;exitDx=0;exitDy=0;" edge="1" parent="1">
                    <mxGeometry relative="1" as="geometry">
                        <mxPoint x="565" y="300" as="sourcePoint"/>
                        <mxPoint x="685" y="300" as="targetPoint"/>
                    </mxGeometry>
                </mxCell>
                <mxCell id="M7cJaDudLQJauJ5C9HDS-26" value="信件或包裹送達&lt;br&gt;時，警衛進行查收&lt;br&gt;並確認住戶訊息" style="text;html=1;align=center;verticalAlign=middle;resizable=0;points=[];autosize=1;strokeColor=none;fillColor=none;" vertex="1" parent="1">
                    <mxGeometry x="265" y="210" width="120" height="60" as="geometry"/>
                </mxCell>
                <mxCell id="M7cJaDudLQJauJ5C9HDS-27" value="委員確認訊息後&lt;br&gt;向APP推發公告&lt;br&gt;或簡訊" style="text;html=1;align=center;verticalAlign=middle;resizable=0;points=[];autosize=1;strokeColor=none;fillColor=none;" vertex="1" parent="1">
                    <mxGeometry x="425" y="210" width="110" height="60" as="geometry"/>
                </mxCell>
                <mxCell id="M7cJaDudLQJauJ5C9HDS-28" value="住戶對公告進行評論" style="text;html=1;align=center;verticalAlign=middle;resizable=0;points=[];autosize=1;strokeColor=none;fillColor=none;" vertex="1" parent="1">
                    <mxGeometry x="560" y="225" width="130" height="30" as="geometry"/>
                </mxCell>
                <mxCell id="M7cJaDudLQJauJ5C9HDS-29" style="edgeStyle=none;html=1;entryX=0.75;entryY=0;entryDx=0;entryDy=0;exitX=0.25;exitY=0;exitDx=0;exitDy=0;" edge="1" parent="1">
                    <mxGeometry relative="1" as="geometry">
                        <mxPoint x="715" y="300" as="sourcePoint"/>
                        <mxPoint x="835" y="300" as="targetPoint"/>
                    </mxGeometry>
                </mxCell>
                <mxCell id="M7cJaDudLQJauJ5C9HDS-30" value="委員對公告進行&lt;br&gt;編輯或刪除" style="text;html=1;align=center;verticalAlign=middle;resizable=0;points=[];autosize=1;strokeColor=none;fillColor=none;" vertex="1" parent="1">
                    <mxGeometry x="717" y="225" width="110" height="40" as="geometry"/>
                </mxCell>
            </root>
        </mxGraphModel>
    </diagram>
</mxfile>